<svg xmlns="http://www.w3.org/2000/svg" width="172" height="56.353" viewBox="0 0 172 56.353">
  <g id="Grupo_2" data-name="Grupo 2" transform="translate(-172.88 -388.282)">
    <circle id="Elipse_1" data-name="Elipse 1" cx="4.094" cy="4.094" r="4.094" transform="translate(231.672 431.659)" fill="#f17e2e"/>
    <circle id="Elipse_2" data-name="Elipse 2" cx="2.047" cy="2.047" r="2.047" transform="translate(240.727 438.413)" fill="#f17e2e"/>
    <path id="Caminho_1" data-name="Caminho 1" d="M186.907,424.654a12.959,12.959,0,0,0,1.432,5.91c-5.577,2.564-9.357,7.534-9.357,13.244v.008a14.131,14.131,0,0,1-6.1-11.321c0-7.825,7.1-14.268,16.191-15.034A13.174,13.174,0,0,0,186.907,424.654Z" transform="translate(0 -17.613)" fill="#67a838"/>
    <path id="Caminho_2" data-name="Caminho 2" d="M309.3,432.6a14.2,14.2,0,0,1-6.318,11.488,12.188,12.188,0,0,0,.133-1.84c0-5.3-3.255-9.964-8.183-12.653a12.808,12.808,0,0,0,.949-4.837,13.144,13.144,0,0,0-2.123-7.126C302.538,418.637,309.3,424.956,309.3,432.6Z" transform="translate(-72.96 -17.714)" fill="#e6514a"/>
    <path id="Caminho_3" data-name="Caminho 3" d="M215.977,496.668a20.455,20.455,0,0,1-9.69,2.381c-9.948,0-18.006-6.751-18.014-15.1a19.985,19.985,0,0,0,11.912,3.779,21.047,21.047,0,0,0,4.27-.433C206.32,491.748,210.6,495.244,215.977,496.668Z" transform="translate(-9.291 -57.744)" fill="#e56ea6"/>
    <path id="Caminho_4" data-name="Caminho 4" d="M281.495,484.368c-1.082,7.484-8.666,13.269-17.873,13.269a20.892,20.892,0,0,1-5.461-.716A15.43,15.43,0,0,0,266,487.64a21.067,21.067,0,0,0,3.8.341A20.063,20.063,0,0,0,281.495,484.368Z" transform="translate(-51.475 -57.997)" fill="#f17e2e"/>
    <path id="Caminho_5" data-name="Caminho 5" d="M245.45,405.487a21.875,21.875,0,0,0-2.464-.142,19.513,19.513,0,0,0-13.719,5.328,19.513,19.513,0,0,0-13.719-5.328q-.924,0-1.823.075c3.047-4.712,9-7.908,15.841-7.908C236.443,397.512,242.411,400.742,245.45,405.487Z" transform="translate(-24.654 -5.571)" fill="#32b8ef"/>
    <g id="Grupo_1" data-name="Grupo 1" transform="translate(255.644 388.282)">
      <path id="Caminho_6" data-name="Caminho 6" d="M395.851,413.1h-7.164l-1.113,3.368h-5.908l7.392-20.121h6.479l7.364,20.121h-5.937Zm-1.4-4.224-2.169-6.564-2.2,6.564Z" transform="translate(-381.666 -393.15)" fill="#3e3e3e"/>
      <path id="Caminho_7" data-name="Caminho 7" d="M436.937,389.1a3.469,3.469,0,0,1,2.4-.814,3.367,3.367,0,0,1,2.369.814,2.69,2.69,0,0,1,.884,2.069,2.563,2.563,0,0,1-.9,2,3.412,3.412,0,0,1-2.355.8,3.508,3.508,0,0,1-2.4-.8,2.545,2.545,0,0,1-.913-2A2.648,2.648,0,0,1,436.937,389.1Zm5.166,6.493V411.6h-5.623V395.589Z" transform="translate(-414.476 -388.282)" fill="#3e3e3e"/>
      <path id="Caminho_8" data-name="Caminho 8" d="M460.227,440.437a8.734,8.734,0,0,1,.257,2.1,5.474,5.474,0,0,1-1.142,3.553,4.318,4.318,0,0,1-3.568,1.412v-2.026a1.685,1.685,0,0,0,1.17-.343,1.823,1.823,0,0,0,.371-1.341v-.314h-2.283v-4.938h4.452A7.457,7.457,0,0,1,460.227,440.437Z" transform="translate(-425.95 -418.617)" fill="#3e3e3e"/>
      <path id="Caminho_9" data-name="Caminho 9" d="M390.84,466.87a4.479,4.479,0,0,1,1.579,2.721h-3.5a1.377,1.377,0,0,0-.542-.856,1.7,1.7,0,0,0-1-.286.979.979,0,0,0-.638.181.619.619,0,0,0-.219.5.645.645,0,0,0,.466.6,10.032,10.032,0,0,0,1.532.447,14.822,14.822,0,0,1,2.046.571,3.475,3.475,0,0,1,1.408.989,2.7,2.7,0,0,1,.6,1.846,2.788,2.788,0,0,1-.514,1.655,3.358,3.358,0,0,1-1.493,1.132,6.944,6.944,0,0,1-5.889-.561,4.059,4.059,0,0,1-1.617-2.778h3.6a1.172,1.172,0,0,0,.5.875,1.9,1.9,0,0,0,1.075.285,1.016,1.016,0,0,0,.666-.19.615.615,0,0,0,.229-.495.7.7,0,0,0-.485-.666,8.285,8.285,0,0,0-1.551-.419,13.154,13.154,0,0,1-2-.542,3.4,3.4,0,0,1-1.36-.951,2.649,2.649,0,0,1-.58-1.817,2.9,2.9,0,0,1,1.123-2.36,4.947,4.947,0,0,1,3.2-.913A5.154,5.154,0,0,1,390.84,466.87Z" transform="translate(-382.506 -435.097)" fill="#3e3e3e"/>
      <path id="Caminho_10" data-name="Caminho 10" d="M419.017,471.989h-7.059q.1,1.808,1.579,1.807a1.5,1.5,0,0,0,.913-.266,1.334,1.334,0,0,0,.495-.7H418.9a4.524,4.524,0,0,1-.932,2.026,5,5,0,0,1-1.826,1.417,5.65,5.65,0,0,1-2.417.514,5.9,5.9,0,0,1-2.826-.656,4.64,4.64,0,0,1-1.912-1.9,6.549,6.549,0,0,1,0-5.832,4.645,4.645,0,0,1,1.922-1.893,6.412,6.412,0,0,1,5.632-.009,4.609,4.609,0,0,1,1.893,1.846,5.561,5.561,0,0,1,.675,2.778A4.489,4.489,0,0,1,419.017,471.989Zm-4.148-2.8a1.626,1.626,0,0,0-1.141-.419,1.742,1.742,0,0,0-1.208.419,1.814,1.814,0,0,0-.542,1.237h3.33A1.544,1.544,0,0,0,414.869,469.191Z" transform="translate(-397.745 -435.097)" fill="#3e3e3e"/>
      <path id="Caminho_11" data-name="Caminho 11" d="M454.584,471.989h-7.059q.1,1.808,1.579,1.807a1.5,1.5,0,0,0,.913-.266,1.334,1.334,0,0,0,.495-.7h3.957a4.518,4.518,0,0,1-.932,2.026,5,5,0,0,1-1.827,1.417,5.646,5.646,0,0,1-2.416.514,5.894,5.894,0,0,1-2.826-.656,4.64,4.64,0,0,1-1.912-1.9,6.549,6.549,0,0,1,0-5.832,4.645,4.645,0,0,1,1.922-1.893,6.412,6.412,0,0,1,5.632-.009A4.615,4.615,0,0,1,454,468.336a5.565,5.565,0,0,1,.675,2.778A4.489,4.489,0,0,1,454.584,471.989Zm-4.148-2.8a1.627,1.627,0,0,0-1.142-.419,1.742,1.742,0,0,0-1.208.419,1.818,1.818,0,0,0-.542,1.237h3.33A1.545,1.545,0,0,0,450.436,469.191Z" transform="translate(-419.213 -435.097)" fill="#3e3e3e"/>
      <path id="Caminho_12" data-name="Caminho 12" d="M484.225,466.179v10.674H480.5v-1.788a3.458,3.458,0,0,1-1.332,1.37,3.988,3.988,0,0,1-2.055.514,3.628,3.628,0,0,1-2.9-1.228,4.981,4.981,0,0,1-1.056-3.358v-6.184h3.73v5.727a2.032,2.032,0,0,0,.485,1.437,1.691,1.691,0,0,0,1.3.523,1.73,1.73,0,0,0,1.332-.532,2.127,2.127,0,0,0,.495-1.5v-5.651Z" transform="translate(-436.886 -435.3)" fill="#3e3e3e"/>
      <path id="Caminho_13" data-name="Caminho 13" d="M390.84,503.87a4.479,4.479,0,0,1,1.579,2.721h-3.5a1.377,1.377,0,0,0-.542-.856,1.7,1.7,0,0,0-1-.286.979.979,0,0,0-.638.181.619.619,0,0,0-.219.5.645.645,0,0,0,.466.6,10.025,10.025,0,0,0,1.532.447,14.821,14.821,0,0,1,2.046.571,3.475,3.475,0,0,1,1.408.989,2.7,2.7,0,0,1,.6,1.846,2.787,2.787,0,0,1-.514,1.655,3.357,3.357,0,0,1-1.493,1.132,6.945,6.945,0,0,1-5.889-.561,4.059,4.059,0,0,1-1.617-2.778h3.6a1.172,1.172,0,0,0,.5.875,1.9,1.9,0,0,0,1.075.285,1.015,1.015,0,0,0,.666-.19.614.614,0,0,0,.229-.495.7.7,0,0,0-.485-.666,8.3,8.3,0,0,0-1.551-.419,13.132,13.132,0,0,1-2-.542,3.4,3.4,0,0,1-1.36-.951,2.649,2.649,0,0,1-.58-1.817,2.9,2.9,0,0,1,1.123-2.36,4.947,4.947,0,0,1,3.2-.913A5.154,5.154,0,0,1,390.84,503.87Z" transform="translate(-382.506 -457.431)" fill="#3e3e3e"/>
      <path id="Caminho_14" data-name="Caminho 14" d="M416.763,503.5a4.83,4.83,0,0,1,1.988,1.9,6.2,6.2,0,0,1,0,5.813,4.908,4.908,0,0,1-1.988,1.9,6.514,6.514,0,0,1-5.737,0,4.894,4.894,0,0,1-2-1.9,6.223,6.223,0,0,1,0-5.823,4.833,4.833,0,0,1,2-1.893,6.6,6.6,0,0,1,5.737,0Zm-4.157,3.149a2.4,2.4,0,0,0-.514,1.655,2.427,2.427,0,0,0,.514,1.675,1.665,1.665,0,0,0,1.294.57,1.633,1.633,0,0,0,1.275-.58,2.433,2.433,0,0,0,.514-1.665,2.4,2.4,0,0,0-.514-1.655,1.646,1.646,0,0,0-1.275-.57A1.665,1.665,0,0,0,412.605,506.648Z" transform="translate(-397.745 -457.431)" fill="#3e3e3e"/>
      <path id="Caminho_15" data-name="Caminho 15" d="M449.57,503.179v10.674h-3.73v-1.788a3.453,3.453,0,0,1-1.332,1.37,3.99,3.99,0,0,1-2.055.514,3.627,3.627,0,0,1-2.9-1.228,4.98,4.98,0,0,1-1.056-3.358v-6.183h3.729v5.727a2.031,2.031,0,0,0,.485,1.437,1.691,1.691,0,0,0,1.3.523,1.73,1.73,0,0,0,1.332-.532,2.127,2.127,0,0,0,.495-1.5v-5.651Z" transform="translate(-415.968 -457.633)" fill="#3e3e3e"/>
      <path id="Caminho_16" data-name="Caminho 16" d="M479.385,498.516A4.456,4.456,0,0,1,481,500.409a7.5,7.5,0,0,1,0,5.832,4.439,4.439,0,0,1-1.617,1.9,4.184,4.184,0,0,1-2.3.656,3.738,3.738,0,0,1-1.941-.485,3.007,3.007,0,0,1-1.218-1.342v1.693h-3.748v-14.08h3.748v5.1a3.007,3.007,0,0,1,1.218-1.341,3.734,3.734,0,0,1,1.941-.485A4.19,4.19,0,0,1,479.385,498.516Zm-4.928,3.206a2.246,2.246,0,0,0-.552,1.6,2.273,2.273,0,0,0,.552,1.617,1.821,1.821,0,0,0,1.389.59,1.851,1.851,0,0,0,1.418-.58,2.292,2.292,0,0,0,.542-1.627,2.263,2.263,0,0,0-.542-1.607,1.851,1.851,0,0,0-1.418-.58A1.82,1.82,0,0,0,474.457,501.722Z" transform="translate(-435.09 -452.447)" fill="#3e3e3e"/>
      <path id="Caminho_17" data-name="Caminho 17" d="M510.6,508.989h-7.059q.1,1.808,1.579,1.807a1.5,1.5,0,0,0,.913-.266,1.335,1.335,0,0,0,.495-.7h3.957a4.521,4.521,0,0,1-.932,2.026,5,5,0,0,1-1.827,1.418,5.649,5.649,0,0,1-2.416.514,5.9,5.9,0,0,1-2.826-.656,4.646,4.646,0,0,1-1.912-1.9,6.553,6.553,0,0,1,0-5.832,4.648,4.648,0,0,1,1.922-1.893,6.412,6.412,0,0,1,5.632-.009,4.611,4.611,0,0,1,1.893,1.846,5.561,5.561,0,0,1,.675,2.778A4.488,4.488,0,0,1,510.6,508.989Zm-4.148-2.8a1.626,1.626,0,0,0-1.142-.419,1.741,1.741,0,0,0-1.208.419,1.817,1.817,0,0,0-.543,1.237h3.33A1.544,1.544,0,0,0,506.452,506.191Z" transform="translate(-453.024 -457.431)" fill="#3e3e3e"/>
      <path id="Caminho_18" data-name="Caminho 18" d="M536.325,503.87a4.479,4.479,0,0,1,1.579,2.721h-3.5a1.374,1.374,0,0,0-.542-.856,1.7,1.7,0,0,0-1-.286.979.979,0,0,0-.637.181.619.619,0,0,0-.219.5.646.646,0,0,0,.466.6,10.011,10.011,0,0,0,1.532.447,14.8,14.8,0,0,1,2.045.571,3.476,3.476,0,0,1,1.408.989,2.7,2.7,0,0,1,.6,1.846,2.787,2.787,0,0,1-.514,1.655,3.356,3.356,0,0,1-1.494,1.132,6.944,6.944,0,0,1-5.889-.561,4.059,4.059,0,0,1-1.617-2.778h3.6a1.169,1.169,0,0,0,.5.875,1.892,1.892,0,0,0,1.075.285,1.015,1.015,0,0,0,.665-.19.614.614,0,0,0,.228-.495.7.7,0,0,0-.485-.666,8.294,8.294,0,0,0-1.55-.419,13.107,13.107,0,0,1-2-.542,3.4,3.4,0,0,1-1.361-.951,2.65,2.65,0,0,1-.58-1.817,2.9,2.9,0,0,1,1.123-2.36,4.947,4.947,0,0,1,3.2-.913A5.156,5.156,0,0,1,536.325,503.87Z" transform="translate(-470.32 -457.431)" fill="#3e3e3e"/>
      <path id="Caminho_19" data-name="Caminho 19" d="M562.053,503.87a4.476,4.476,0,0,1,1.58,2.721h-3.5a1.377,1.377,0,0,0-.542-.856,1.7,1.7,0,0,0-1-.286.979.979,0,0,0-.637.181.618.618,0,0,0-.219.5.645.645,0,0,0,.466.6,10.011,10.011,0,0,0,1.532.447,14.805,14.805,0,0,1,2.046.571,3.479,3.479,0,0,1,1.408.989,2.7,2.7,0,0,1,.6,1.846,2.787,2.787,0,0,1-.514,1.655,3.361,3.361,0,0,1-1.494,1.132,6.944,6.944,0,0,1-5.889-.561,4.057,4.057,0,0,1-1.617-2.778h3.6a1.17,1.17,0,0,0,.5.875,1.893,1.893,0,0,0,1.075.285,1.017,1.017,0,0,0,.666-.19.614.614,0,0,0,.228-.495.7.7,0,0,0-.486-.666,8.281,8.281,0,0,0-1.55-.419,13.121,13.121,0,0,1-2-.542,3.4,3.4,0,0,1-1.36-.951,2.648,2.648,0,0,1-.58-1.817,2.9,2.9,0,0,1,1.123-2.36,4.945,4.945,0,0,1,3.2-.913A5.153,5.153,0,0,1,562.053,503.87Z" transform="translate(-485.85 -457.431)" fill="#3e3e3e"/>
      <path id="Caminho_20" data-name="Caminho 20" d="M590.23,508.989h-7.059q.1,1.808,1.58,1.807a1.5,1.5,0,0,0,.913-.266,1.333,1.333,0,0,0,.5-.7h3.957a4.522,4.522,0,0,1-.932,2.026,5,5,0,0,1-1.827,1.418,5.651,5.651,0,0,1-2.417.514,5.9,5.9,0,0,1-2.826-.656,4.643,4.643,0,0,1-1.912-1.9,6.553,6.553,0,0,1,0-5.832,4.645,4.645,0,0,1,1.922-1.893,6.412,6.412,0,0,1,5.632-.009,4.612,4.612,0,0,1,1.893,1.846,5.561,5.561,0,0,1,.676,2.778A4.493,4.493,0,0,1,590.23,508.989Zm-4.148-2.8a1.626,1.626,0,0,0-1.142-.419,1.742,1.742,0,0,0-1.208.419,1.819,1.819,0,0,0-.542,1.237h3.33A1.544,1.544,0,0,0,586.082,506.191Z" transform="translate(-501.089 -457.431)" fill="#3e3e3e"/>
    </g>
  </g>
</svg>
